<mxfile host="app.diagrams.net" agent="Mozilla/5.0 (Windows NT 10.0; Win64; x64) AppleWebKit/537.36 (KHTML, like Gecko) Chrome/135.0.0.0 Safari/537.36 Edg/135.0.0.0" version="26.2.13" pages="3">
  <diagram name="Page-1" id="2YBvvXClWsGukQMizWep">
    <mxGraphModel grid="1" page="1" gridSize="10" guides="1" tooltips="1" connect="1" arrows="1" fold="1" pageScale="1" pageWidth="850" pageHeight="1100" math="0" shadow="0">
      <root>
        <mxCell id="0" />
        <mxCell id="1" parent="0" />
        <mxCell id="kOZSVWdUfnPGtwJZLOsW-3" value="" style="endArrow=none;dashed=1;html=1;rounded=0;verticalAlign=top;" edge="1" parent="1" target="kOZSVWdUfnPGtwJZLOsW-1">
          <mxGeometry width="50" height="50" relative="1" as="geometry">
            <mxPoint x="90" y="570" as="sourcePoint" />
            <mxPoint x="90" y="100" as="targetPoint" />
            <Array as="points">
              <mxPoint x="90" y="190" />
            </Array>
          </mxGeometry>
        </mxCell>
        <mxCell id="aM9ryv3xv72pqoxQDRHE-5" value=":System" style="shape=umlLifeline;perimeter=lifelinePerimeter;whiteSpace=wrap;html=1;container=0;dropTarget=0;collapsible=0;recursiveResize=0;outlineConnect=0;portConstraint=eastwest;newEdgeStyle={&quot;edgeStyle&quot;:&quot;elbowEdgeStyle&quot;,&quot;elbow&quot;:&quot;vertical&quot;,&quot;curved&quot;:0,&quot;rounded&quot;:0};" vertex="1" parent="1">
          <mxGeometry x="520" y="20" width="100" height="550" as="geometry" />
        </mxCell>
        <mxCell id="aM9ryv3xv72pqoxQDRHE-6" value="" style="html=1;points=[];perimeter=orthogonalPerimeter;outlineConnect=0;targetShapes=umlLifeline;portConstraint=eastwest;newEdgeStyle={&quot;edgeStyle&quot;:&quot;elbowEdgeStyle&quot;,&quot;elbow&quot;:&quot;vertical&quot;,&quot;curved&quot;:0,&quot;rounded&quot;:0};" vertex="1" parent="aM9ryv3xv72pqoxQDRHE-5">
          <mxGeometry x="45" y="80" width="10" height="410" as="geometry" />
        </mxCell>
        <mxCell id="aM9ryv3xv72pqoxQDRHE-7" value="User logs in" style="html=1;verticalAlign=bottom;endArrow=block;edgeStyle=elbowEdgeStyle;elbow=vertical;curved=0;rounded=0;" edge="1" parent="1" source="aM9ryv3xv72pqoxQDRHE-2" target="aM9ryv3xv72pqoxQDRHE-6">
          <mxGeometry relative="1" as="geometry">
            <mxPoint x="195" y="130" as="sourcePoint" />
            <Array as="points">
              <mxPoint x="180" y="120" />
            </Array>
          </mxGeometry>
        </mxCell>
        <mxCell id="aM9ryv3xv72pqoxQDRHE-8" value="System stores Transacrion &amp;amp; updates balance()" style="html=1;verticalAlign=bottom;endArrow=block;dashed=1;endSize=8;edgeStyle=elbowEdgeStyle;elbow=horizontal;curved=0;rounded=0;endFill=1;" edge="1" parent="1">
          <mxGeometry relative="1" as="geometry">
            <mxPoint x="95" y="410" as="targetPoint" />
            <Array as="points">
              <mxPoint x="190" y="410" />
            </Array>
            <mxPoint x="565" y="410" as="sourcePoint" />
          </mxGeometry>
        </mxCell>
        <mxCell id="aM9ryv3xv72pqoxQDRHE-9" value="User Authenticated()" style="html=1;verticalAlign=bottom;endArrow=block;edgeStyle=elbowEdgeStyle;elbow=vertical;curved=0;rounded=0;dashed=1;" edge="1" parent="1" source="aM9ryv3xv72pqoxQDRHE-6" target="aM9ryv3xv72pqoxQDRHE-2">
          <mxGeometry relative="1" as="geometry">
            <mxPoint x="175" y="160" as="sourcePoint" />
            <Array as="points">
              <mxPoint x="190" y="160" />
            </Array>
          </mxGeometry>
        </mxCell>
        <mxCell id="aM9ryv3xv72pqoxQDRHE-2" value="" style="html=1;points=[];perimeter=orthogonalPerimeter;outlineConnect=0;targetShapes=umlLifeline;portConstraint=eastwest;newEdgeStyle={&quot;edgeStyle&quot;:&quot;elbowEdgeStyle&quot;,&quot;elbow&quot;:&quot;vertical&quot;,&quot;curved&quot;:0,&quot;rounded&quot;:0};" vertex="1" parent="1">
          <mxGeometry x="85" y="110" width="10" height="410" as="geometry" />
        </mxCell>
        <mxCell id="aM9ryv3xv72pqoxQDRHE-3" value="" style="html=1;verticalAlign=bottom;startArrow=oval;endArrow=block;startSize=8;edgeStyle=elbowEdgeStyle;elbow=vertical;curved=0;rounded=0;" edge="1" parent="1" target="aM9ryv3xv72pqoxQDRHE-2">
          <mxGeometry relative="1" as="geometry">
            <mxPoint x="25" y="110" as="sourcePoint" />
          </mxGeometry>
        </mxCell>
        <mxCell id="kOZSVWdUfnPGtwJZLOsW-1" value="User" style="shape=umlActor;verticalLabelPosition=bottom;verticalAlign=top;html=1;outlineConnect=0;" vertex="1" parent="1">
          <mxGeometry x="75" y="17" width="30" height="60" as="geometry" />
        </mxCell>
        <mxCell id="XXojtdnzijKemovWcZlM-1" value="User input (Recipient, Amount)" style="html=1;verticalAlign=bottom;endArrow=block;edgeStyle=elbowEdgeStyle;elbow=vertical;curved=0;rounded=0;" edge="1" parent="1">
          <mxGeometry relative="1" as="geometry">
            <mxPoint x="95" y="205.9999999999999" as="sourcePoint" />
            <Array as="points">
              <mxPoint x="180" y="206" />
            </Array>
            <mxPoint x="565" y="205.9999999999999" as="targetPoint" />
          </mxGeometry>
        </mxCell>
        <mxCell id="XXojtdnzijKemovWcZlM-3" value=":Payement Gateway" style="shape=umlLifeline;perimeter=lifelinePerimeter;whiteSpace=wrap;html=1;container=0;dropTarget=0;collapsible=0;recursiveResize=0;outlineConnect=0;portConstraint=eastwest;newEdgeStyle={&quot;edgeStyle&quot;:&quot;elbowEdgeStyle&quot;,&quot;elbow&quot;:&quot;vertical&quot;,&quot;curved&quot;:0,&quot;rounded&quot;:0};" vertex="1" parent="1">
          <mxGeometry x="698" y="200" width="100" height="370" as="geometry" />
        </mxCell>
        <mxCell id="XXojtdnzijKemovWcZlM-5" value="Gateway call()" style="html=1;verticalAlign=bottom;endArrow=block;edgeStyle=elbowEdgeStyle;elbow=vertical;curved=0;rounded=0;" edge="1" parent="1">
          <mxGeometry relative="1" as="geometry">
            <mxPoint x="575" y="322" as="sourcePoint" />
            <Array as="points">
              <mxPoint x="605" y="322" />
            </Array>
            <mxPoint x="743" y="322" as="targetPoint" />
          </mxGeometry>
        </mxCell>
        <mxCell id="XXojtdnzijKemovWcZlM-6" value="returns Succes or Failure" style="html=1;verticalAlign=bottom;endArrow=block;dashed=1;endSize=8;elbow=horizontal;rounded=0;endFill=1;" edge="1" parent="1">
          <mxGeometry relative="1" as="geometry">
            <mxPoint x="575" y="360.0000000000001" as="targetPoint" />
            <mxPoint x="743" y="360.0000000000001" as="sourcePoint" />
          </mxGeometry>
        </mxCell>
        <mxCell id="XXojtdnzijKemovWcZlM-7" value="System validates recipient()" style="html=1;verticalAlign=bottom;endArrow=block;dashed=1;endSize=8;edgeStyle=elbowEdgeStyle;elbow=horizontal;curved=0;rounded=0;endFill=1;" edge="1" parent="1">
          <mxGeometry relative="1" as="geometry">
            <mxPoint x="95" y="245" as="targetPoint" />
            <Array as="points">
              <mxPoint x="190" y="245" />
            </Array>
            <mxPoint x="565" y="245" as="sourcePoint" />
          </mxGeometry>
        </mxCell>
        <mxCell id="XXojtdnzijKemovWcZlM-8" value="User input (Recipient, Amount)" style="html=1;verticalAlign=bottom;endArrow=block;edgeStyle=elbowEdgeStyle;elbow=vertical;curved=0;rounded=0;" edge="1" parent="1">
          <mxGeometry relative="1" as="geometry">
            <mxPoint x="95" y="281.9999999999999" as="sourcePoint" />
            <Array as="points">
              <mxPoint x="180" y="282" />
            </Array>
            <mxPoint x="565" y="281.9999999999999" as="targetPoint" />
          </mxGeometry>
        </mxCell>
        <mxCell id="XXojtdnzijKemovWcZlM-9" value="Return Confirmation" style="html=1;verticalAlign=bottom;endArrow=block;dashed=1;endSize=8;edgeStyle=elbowEdgeStyle;elbow=horizontal;curved=0;rounded=0;endFill=1;" edge="1" parent="1">
          <mxGeometry relative="1" as="geometry">
            <mxPoint x="96" y="451" as="targetPoint" />
            <Array as="points">
              <mxPoint x="191" y="451" />
            </Array>
            <mxPoint x="566" y="451" as="sourcePoint" />
          </mxGeometry>
        </mxCell>
        <mxCell id="XXojtdnzijKemovWcZlM-4" value="" style="html=1;points=[];perimeter=orthogonalPerimeter;outlineConnect=0;targetShapes=umlLifeline;portConstraint=eastwest;newEdgeStyle={&quot;edgeStyle&quot;:&quot;elbowEdgeStyle&quot;,&quot;elbow&quot;:&quot;vertical&quot;,&quot;curved&quot;:0,&quot;rounded&quot;:0};" vertex="1" parent="1">
          <mxGeometry x="743" y="290" width="10" height="90" as="geometry" />
        </mxCell>
      </root>
    </mxGraphModel>
  </diagram>
  <diagram id="Sa64f-Ewba8BhBJWBHrr" name="Page-2">
    <mxGraphModel grid="1" page="1" gridSize="10" guides="1" tooltips="1" connect="1" arrows="1" fold="1" pageScale="1" pageWidth="827" pageHeight="1169" math="0" shadow="0">
      <root>
        <mxCell id="0" />
        <mxCell id="1" parent="0" />
        <mxCell id="R4X5WbDdvyJxXy2OKCyM-21" value="Transaction" style="shape=umlFrame;whiteSpace=wrap;html=1;rounded=1;shadow=0;comic=0;labelBackgroundColor=none;strokeWidth=1;fontFamily=Verdana;fontSize=14;align=center;width=110;height=30;" vertex="1" parent="1">
          <mxGeometry x="130" y="50" width="1030" height="670" as="geometry" />
        </mxCell>
        <mxCell id="R4X5WbDdvyJxXy2OKCyM-1" value="" style="ellipse;html=1;shape=startState;fillColor=#000000;strokeColor=#ff0000;rounded=1;shadow=0;comic=0;labelBackgroundColor=none;fontFamily=Verdana;fontSize=12;fontColor=#000000;align=center;direction=south;" vertex="1" parent="1">
          <mxGeometry x="210" y="150" width="30" height="30" as="geometry" />
        </mxCell>
        <mxCell id="GMiruAoS2rHF9cVh-9F6-10" style="edgeStyle=orthogonalEdgeStyle;shape=connector;rounded=1;orthogonalLoop=1;jettySize=auto;html=1;exitX=1;exitY=0.5;exitDx=0;exitDy=0;entryX=0;entryY=0.75;entryDx=0;entryDy=0;strokeColor=#ff0000;align=left;verticalAlign=middle;fontFamily=Verdana;fontSize=12;fontColor=default;labelBackgroundColor=none;endArrow=open;endSize=8;" edge="1" parent="1" source="R4X5WbDdvyJxXy2OKCyM-2" target="GMiruAoS2rHF9cVh-9F6-8">
          <mxGeometry relative="1" as="geometry" />
        </mxCell>
        <mxCell id="GMiruAoS2rHF9cVh-9F6-12" value="&lt;span style=&quot;color: rgba(0, 0, 0, 0); font-family: monospace; font-size: 0px; text-align: start;&quot;&gt;%3CmxGraphModel%3E%3Croot%3E%3CmxCell%20id%3D%220%22%2F%3E%3CmxCell%20id%3D%221%22%20parent%3D%220%22%2F%3E%3CmxCell%20id%3D%222%22%20value%3D%22cancel()%3B%20optional%22%20style%3D%22edgeLabel%3Bhtml%3D1%3Balign%3Dcenter%3BverticalAlign%3Dmiddle%3Bresizable%3D0%3Bpoints%3D%5B%5D%3BfontFamily%3DVerdana%3BfontSize%3D12%3BfontColor%3Ddefault%3BlabelBackgroundColor%3Dnone%3BfillColor%3Dnone%3BgradientColor%3Dnone%3B%22%20vertex%3D%221%22%20connectable%3D%220%22%20parent%3D%221%22%3E%3CmxGeometry%20x%3D%22870.0000000000002%22%20y%3D%22455%22%20as%3D%22geometry%22%2F%3E%3C%2FmxCell%3E%3C%2Froot%3E%3C%2FmxGraphModel%3E&lt;/span&gt;&lt;span style=&quot;color: rgba(0, 0, 0, 0); font-family: monospace; font-size: 0px; text-align: start;&quot;&gt;%3CmxGraphModel%3E%3Croot%3E%3CmxCell%20id%3D%220%22%2F%3E%3CmxCell%20id%3D%221%22%20parent%3D%220%22%2F%3E%3CmxCell%20id%3D%222%22%20value%3D%22cancel()%3B%20optional%22%20style%3D%22edgeLabel%3Bhtml%3D1%3Balign%3Dcenter%3BverticalAlign%3Dmiddle%3Bresizable%3D0%3Bpoints%3D%5B%5D%3BfontFamily%3DVerdana%3BfontSize%3D12%3BfontColor%3Ddefault%3BlabelBackgroundColor%3Dnone%3BfillColor%3Dnone%3BgradientColor%3Dnone%3B%22%20vertex%3D%221%22%20connectable%3D%220%22%20parent%3D%221%22%3E%3CmxGeometry%20x%3D%22870.0000000000002%22%20y%3D%22455%22%20as%3D%22geometry%22%2F%3E%3C%2FmxCell%3E%3C%2Froot%3E%3C%2FmxGraphModel%3E&lt;/span&gt;" style="edgeLabel;html=1;align=center;verticalAlign=middle;resizable=0;points=[];fontFamily=Verdana;fontSize=12;fontColor=default;labelBackgroundColor=none;fillColor=none;gradientColor=none;" connectable="0" vertex="1" parent="GMiruAoS2rHF9cVh-9F6-10">
          <mxGeometry x="-0.142" y="5" relative="1" as="geometry">
            <mxPoint y="-1" as="offset" />
          </mxGeometry>
        </mxCell>
        <mxCell id="R4X5WbDdvyJxXy2OKCyM-2" value="Failed" style="rounded=1;whiteSpace=wrap;html=1;arcSize=24;fillColor=#ffffc0;strokeColor=#ff0000;shadow=0;comic=0;labelBackgroundColor=none;fontFamily=Verdana;fontSize=14;fontColor=#000000;align=center;" vertex="1" parent="1">
          <mxGeometry x="320" y="343" width="120" height="60" as="geometry" />
        </mxCell>
        <mxCell id="R4X5WbDdvyJxXy2OKCyM-3" value="Initiated" style="rounded=1;whiteSpace=wrap;html=1;arcSize=24;fillColor=#ffffc0;strokeColor=#ff0000;shadow=0;comic=0;labelBackgroundColor=none;fontFamily=Verdana;fontSize=14;fontColor=#000000;align=center;" vertex="1" parent="1">
          <mxGeometry x="320" y="135" width="120" height="60" as="geometry" />
        </mxCell>
        <mxCell id="R4X5WbDdvyJxXy2OKCyM-4" style="edgeStyle=orthogonalEdgeStyle;html=1;exitX=1;exitY=0.25;entryX=0.25;entryY=0;labelBackgroundColor=none;endArrow=open;endSize=8;strokeColor=#ff0000;fontFamily=Verdana;fontSize=12;align=left;" edge="1" parent="1" source="R4X5WbDdvyJxXy2OKCyM-5" target="R4X5WbDdvyJxXy2OKCyM-8">
          <mxGeometry relative="1" as="geometry" />
        </mxCell>
        <mxCell id="GMiruAoS2rHF9cVh-9F6-5" value="[if Transaction is successful]" style="edgeLabel;html=1;align=center;verticalAlign=middle;resizable=0;points=[];fontFamily=Helvetica;fontSize=13;fontColor=default;labelBackgroundColor=none;fillColor=none;gradientColor=none;rotation=90;" connectable="0" vertex="1" parent="R4X5WbDdvyJxXy2OKCyM-4">
          <mxGeometry x="-0.5177" y="5" relative="1" as="geometry">
            <mxPoint x="6" y="48" as="offset" />
          </mxGeometry>
        </mxCell>
        <mxCell id="GMiruAoS2rHF9cVh-9F6-6" value="[if Transaction is unsuccessful]" style="edgeLabel;html=1;align=center;verticalAlign=middle;resizable=0;points=[];fontFamily=Helvetica;fontSize=14;fontColor=default;labelBackgroundColor=none;fillColor=none;gradientColor=none;" connectable="0" vertex="1" parent="R4X5WbDdvyJxXy2OKCyM-4">
          <mxGeometry x="-0.5177" y="5" relative="1" as="geometry">
            <mxPoint x="-236" y="99" as="offset" />
          </mxGeometry>
        </mxCell>
        <mxCell id="R4X5WbDdvyJxXy2OKCyM-5" value="Pending" style="rounded=1;whiteSpace=wrap;html=1;arcSize=24;fillColor=#ffffc0;strokeColor=#ff0000;shadow=0;comic=0;labelBackgroundColor=none;fontFamily=Verdana;fontSize=14;fontColor=#000000;align=center;" vertex="1" parent="1">
          <mxGeometry x="827" y="134" width="120" height="60" as="geometry" />
        </mxCell>
        <mxCell id="R4X5WbDdvyJxXy2OKCyM-7" style="edgeStyle=elbowEdgeStyle;html=1;exitX=0;exitY=0.75;entryX=0.5;entryY=0;labelBackgroundColor=none;endArrow=open;endSize=8;strokeColor=#ff0000;fontFamily=Verdana;fontSize=12;align=left;entryDx=0;entryDy=0;" edge="1" parent="1" source="R4X5WbDdvyJxXy2OKCyM-8" target="GMiruAoS2rHF9cVh-9F6-8">
          <mxGeometry relative="1" as="geometry">
            <mxPoint x="720" y="370" as="targetPoint" />
            <Array as="points">
              <mxPoint x="780" y="465" />
            </Array>
          </mxGeometry>
        </mxCell>
        <mxCell id="GMiruAoS2rHF9cVh-9F6-11" value="[if user cancels transaction]cancel()" style="edgeLabel;html=1;align=center;verticalAlign=middle;resizable=0;points=[];fontFamily=Verdana;fontSize=14;fontColor=default;labelBackgroundColor=none;fillColor=none;gradientColor=none;" connectable="0" vertex="1" parent="R4X5WbDdvyJxXy2OKCyM-7">
          <mxGeometry x="-0.5077" y="-4" relative="1" as="geometry">
            <mxPoint x="-50" y="-11" as="offset" />
          </mxGeometry>
        </mxCell>
        <mxCell id="GMiruAoS2rHF9cVh-9F6-13" value="cancel()&lt;div&gt;&lt;br&gt;&lt;/div&gt;" style="edgeLabel;html=1;align=center;verticalAlign=middle;resizable=0;points=[];fontFamily=Verdana;fontSize=14;fontColor=default;labelBackgroundColor=none;fillColor=none;gradientColor=none;rotation=92;" connectable="0" vertex="1" parent="R4X5WbDdvyJxXy2OKCyM-7">
          <mxGeometry x="-0.5077" y="-4" relative="1" as="geometry">
            <mxPoint x="-280" y="-11" as="offset" />
          </mxGeometry>
        </mxCell>
        <mxCell id="R4X5WbDdvyJxXy2OKCyM-8" value="Successful" style="rounded=1;whiteSpace=wrap;html=1;arcSize=24;fillColor=#ffffc0;strokeColor=#ff0000;shadow=0;comic=0;labelBackgroundColor=none;fontFamily=Verdana;fontSize=14;fontColor=#000000;align=center;" vertex="1" parent="1">
          <mxGeometry x="950" y="420" width="120" height="60" as="geometry" />
        </mxCell>
        <mxCell id="R4X5WbDdvyJxXy2OKCyM-22" style="edgeStyle=orthogonalEdgeStyle;html=1;labelBackgroundColor=none;endArrow=open;endSize=8;strokeColor=#ff0000;fontFamily=Verdana;fontSize=12;align=left;" edge="1" parent="1" source="R4X5WbDdvyJxXy2OKCyM-1" target="R4X5WbDdvyJxXy2OKCyM-3">
          <mxGeometry relative="1" as="geometry" />
        </mxCell>
        <mxCell id="GMiruAoS2rHF9cVh-9F6-1" value="Validate()&amp;nbsp;" style="edgeLabel;html=1;align=center;verticalAlign=middle;resizable=0;points=[];labelBackgroundColor=none;rotation=0;fontSize=14;" connectable="0" vertex="1" parent="R4X5WbDdvyJxXy2OKCyM-22">
          <mxGeometry x="0.06" y="-3" relative="1" as="geometry">
            <mxPoint x="318" y="-15" as="offset" />
          </mxGeometry>
        </mxCell>
        <mxCell id="R4X5WbDdvyJxXy2OKCyM-23" style="html=1;labelBackgroundColor=none;endArrow=open;endSize=8;strokeColor=#ff0000;fontFamily=Verdana;fontSize=12;align=left;entryX=0;entryY=0.5;shadow=1;" edge="1" parent="1" source="R4X5WbDdvyJxXy2OKCyM-3" target="R4X5WbDdvyJxXy2OKCyM-5">
          <mxGeometry relative="1" as="geometry" />
        </mxCell>
        <mxCell id="R4X5WbDdvyJxXy2OKCyM-24" style="edgeStyle=orthogonalEdgeStyle;html=1;entryX=0.75;entryY=0;labelBackgroundColor=none;endArrow=open;endSize=8;strokeColor=#ff0000;fontFamily=Verdana;fontSize=12;align=left;exitX=0.5;exitY=1;" edge="1" parent="1" source="R4X5WbDdvyJxXy2OKCyM-5" target="R4X5WbDdvyJxXy2OKCyM-2">
          <mxGeometry relative="1" as="geometry">
            <mxPoint x="600" y="315" as="sourcePoint" />
            <Array as="points">
              <mxPoint x="887" y="305" />
              <mxPoint x="410" y="305" />
            </Array>
          </mxGeometry>
        </mxCell>
        <mxCell id="R4X5WbDdvyJxXy2OKCyM-25" style="edgeStyle=orthogonalEdgeStyle;html=1;exitX=0.25;exitY=0;entryX=0.25;entryY=1;labelBackgroundColor=none;endArrow=open;endSize=8;strokeColor=#ff0000;fontFamily=Verdana;fontSize=12;align=left;" edge="1" parent="1" source="R4X5WbDdvyJxXy2OKCyM-2" target="R4X5WbDdvyJxXy2OKCyM-3">
          <mxGeometry relative="1" as="geometry" />
        </mxCell>
        <mxCell id="GMiruAoS2rHF9cVh-9F6-7" value="Retry()" style="edgeLabel;html=1;align=center;verticalAlign=middle;resizable=0;points=[];fontFamily=Helvetica;fontSize=14;fontColor=default;labelBackgroundColor=none;fillColor=none;gradientColor=none;rotation=95;" connectable="0" vertex="1" parent="R4X5WbDdvyJxXy2OKCyM-25">
          <mxGeometry x="-0.2062" y="-1" relative="1" as="geometry">
            <mxPoint x="9" y="-13" as="offset" />
          </mxGeometry>
        </mxCell>
        <mxCell id="GMiruAoS2rHF9cVh-9F6-8" value="Cancelled" style="rounded=1;whiteSpace=wrap;html=1;arcSize=24;fillColor=#ffffc0;strokeColor=#ff0000;shadow=0;comic=0;labelBackgroundColor=none;fontFamily=Verdana;fontSize=14;fontColor=#000000;align=center;" vertex="1" parent="1">
          <mxGeometry x="720" y="620" width="120" height="60" as="geometry" />
        </mxCell>
      </root>
    </mxGraphModel>
  </diagram>
  <diagram name="Copy of Page-2" id="SR8xdaYwUkmYWyeqUOxY">
    <mxGraphModel grid="1" page="1" gridSize="10" guides="1" tooltips="1" connect="1" arrows="1" fold="1" pageScale="1" pageWidth="827" pageHeight="1169" math="0" shadow="0">
      <root>
        <mxCell id="fnW5yG54dcR9SUC0q5BZ-0" />
        <mxCell id="fnW5yG54dcR9SUC0q5BZ-1" parent="fnW5yG54dcR9SUC0q5BZ-0" />
        <mxCell id="fnW5yG54dcR9SUC0q5BZ-2" value="Account" style="shape=umlFrame;whiteSpace=wrap;html=1;rounded=1;shadow=0;comic=0;labelBackgroundColor=none;strokeWidth=1;fontFamily=Verdana;fontSize=14;align=center;width=110;height=30;" parent="fnW5yG54dcR9SUC0q5BZ-1" vertex="1">
          <mxGeometry x="130" y="50" width="1030" height="670" as="geometry" />
        </mxCell>
        <mxCell id="fnW5yG54dcR9SUC0q5BZ-3" value="" style="ellipse;html=1;shape=startState;fillColor=#000000;strokeColor=#ff0000;rounded=1;shadow=0;comic=0;labelBackgroundColor=none;fontFamily=Verdana;fontSize=12;fontColor=#000000;align=center;direction=south;" parent="fnW5yG54dcR9SUC0q5BZ-1" vertex="1">
          <mxGeometry x="210" y="150" width="30" height="30" as="geometry" />
        </mxCell>
        <mxCell id="SAv8-u_4452hXOHQvx84-3" style="edgeStyle=elbowEdgeStyle;shape=connector;rounded=1;orthogonalLoop=1;jettySize=auto;html=1;exitX=0.5;exitY=0;exitDx=0;exitDy=0;entryX=0.5;entryY=0;entryDx=0;entryDy=0;strokeColor=#ff0000;align=left;verticalAlign=middle;fontFamily=Verdana;fontSize=12;fontColor=default;labelBackgroundColor=none;endArrow=open;endSize=8;" edge="1" parent="fnW5yG54dcR9SUC0q5BZ-1" source="fnW5yG54dcR9SUC0q5BZ-6" target="fnW5yG54dcR9SUC0q5BZ-15">
          <mxGeometry relative="1" as="geometry">
            <Array as="points">
              <mxPoint x="660" y="280" />
            </Array>
          </mxGeometry>
        </mxCell>
        <mxCell id="SAv8-u_4452hXOHQvx84-4" value="Reactive()" style="edgeLabel;html=1;align=center;verticalAlign=middle;resizable=0;points=[];fontFamily=Verdana;fontSize=14;fontColor=default;labelBackgroundColor=none;" connectable="0" vertex="1" parent="SAv8-u_4452hXOHQvx84-3">
          <mxGeometry x="-0.1522" y="-7" relative="1" as="geometry">
            <mxPoint x="2" y="-17" as="offset" />
          </mxGeometry>
        </mxCell>
        <mxCell id="fnW5yG54dcR9SUC0q5BZ-6" value="Inactive" style="rounded=1;whiteSpace=wrap;html=1;arcSize=24;fillColor=#ffffc0;strokeColor=#ff0000;shadow=0;comic=0;labelBackgroundColor=none;fontFamily=Verdana;fontSize=14;fontColor=#000000;align=center;" parent="fnW5yG54dcR9SUC0q5BZ-1" vertex="1">
          <mxGeometry x="310" y="435" width="120" height="60" as="geometry" />
        </mxCell>
        <mxCell id="fnW5yG54dcR9SUC0q5BZ-7" value="Registered" style="rounded=1;whiteSpace=wrap;html=1;arcSize=24;fillColor=#ffffc0;strokeColor=#ff0000;shadow=0;comic=0;labelBackgroundColor=none;fontFamily=Verdana;fontSize=14;fontColor=#000000;align=center;" parent="fnW5yG54dcR9SUC0q5BZ-1" vertex="1">
          <mxGeometry x="320" y="135" width="120" height="60" as="geometry" />
        </mxCell>
        <mxCell id="fnW5yG54dcR9SUC0q5BZ-8" style="edgeStyle=orthogonalEdgeStyle;html=1;exitX=1;exitY=0.25;entryX=0.75;entryY=0;labelBackgroundColor=none;endArrow=open;endSize=8;strokeColor=#ff0000;fontFamily=Verdana;fontSize=12;align=left;entryDx=0;entryDy=0;" parent="fnW5yG54dcR9SUC0q5BZ-1" edge="1">
          <mxGeometry relative="1" as="geometry">
            <mxPoint x="950.0000000000002" y="150" as="sourcePoint" />
            <mxPoint x="1043.0000000000002" y="421" as="targetPoint" />
            <Array as="points">
              <mxPoint x="1043" y="150" />
            </Array>
          </mxGeometry>
        </mxCell>
        <mxCell id="fnW5yG54dcR9SUC0q5BZ-9" value="Enter User Details()" style="edgeLabel;html=1;align=center;verticalAlign=middle;resizable=0;points=[];fontFamily=Helvetica;fontSize=14;fontColor=default;labelBackgroundColor=none;fillColor=none;gradientColor=none;rotation=90;" parent="fnW5yG54dcR9SUC0q5BZ-8" connectable="0" vertex="1">
          <mxGeometry x="-0.5177" y="5" relative="1" as="geometry">
            <mxPoint x="19" y="86" as="offset" />
          </mxGeometry>
        </mxCell>
        <mxCell id="fnW5yG54dcR9SUC0q5BZ-11" value="Verified" style="rounded=1;whiteSpace=wrap;html=1;arcSize=24;fillColor=#ffffc0;strokeColor=#ff0000;shadow=0;comic=0;labelBackgroundColor=none;fontFamily=Verdana;fontSize=14;fontColor=#000000;align=center;" parent="fnW5yG54dcR9SUC0q5BZ-1" vertex="1">
          <mxGeometry x="827" y="134" width="120" height="60" as="geometry" />
        </mxCell>
        <mxCell id="fnW5yG54dcR9SUC0q5BZ-12" style="edgeStyle=elbowEdgeStyle;html=1;exitX=0;exitY=0.75;entryX=1;entryY=0.5;labelBackgroundColor=none;endArrow=open;endSize=8;strokeColor=#ff0000;fontFamily=Verdana;fontSize=12;align=left;entryDx=0;entryDy=0;" parent="fnW5yG54dcR9SUC0q5BZ-1" source="fnW5yG54dcR9SUC0q5BZ-15" target="fnW5yG54dcR9SUC0q5BZ-6" edge="1">
          <mxGeometry relative="1" as="geometry">
            <mxPoint x="720" y="370" as="targetPoint" />
            <Array as="points">
              <mxPoint x="780" y="465" />
            </Array>
          </mxGeometry>
        </mxCell>
        <mxCell id="fnW5yG54dcR9SUC0q5BZ-13" value="Suspend()" style="edgeLabel;html=1;align=center;verticalAlign=middle;resizable=0;points=[];fontFamily=Verdana;fontSize=14;fontColor=default;labelBackgroundColor=none;fillColor=none;gradientColor=none;" parent="fnW5yG54dcR9SUC0q5BZ-12" connectable="0" vertex="1">
          <mxGeometry x="-0.5077" y="-4" relative="1" as="geometry">
            <mxPoint x="-83" y="-9" as="offset" />
          </mxGeometry>
        </mxCell>
        <mxCell id="SAv8-u_4452hXOHQvx84-1" style="edgeStyle=elbowEdgeStyle;shape=connector;rounded=1;orthogonalLoop=1;jettySize=auto;html=1;entryX=1;entryY=0.5;entryDx=0;entryDy=0;strokeColor=#ff0000;align=left;verticalAlign=middle;fontFamily=Verdana;fontSize=12;fontColor=default;labelBackgroundColor=none;endArrow=open;endSize=8;" edge="1" parent="fnW5yG54dcR9SUC0q5BZ-1" source="fnW5yG54dcR9SUC0q5BZ-15" target="fnW5yG54dcR9SUC0q5BZ-22">
          <mxGeometry relative="1" as="geometry">
            <Array as="points">
              <mxPoint x="1000" y="580" />
            </Array>
          </mxGeometry>
        </mxCell>
        <mxCell id="SAv8-u_4452hXOHQvx84-2" value="Close Account()" style="edgeLabel;html=1;align=center;verticalAlign=middle;resizable=0;points=[];fontFamily=Verdana;fontSize=14;fontColor=default;labelBackgroundColor=none;" connectable="0" vertex="1" parent="SAv8-u_4452hXOHQvx84-1">
          <mxGeometry x="0.257" relative="1" as="geometry">
            <mxPoint x="-23" y="-10" as="offset" />
          </mxGeometry>
        </mxCell>
        <mxCell id="fnW5yG54dcR9SUC0q5BZ-15" value="Active" style="rounded=1;whiteSpace=wrap;html=1;arcSize=24;fillColor=#ffffc0;strokeColor=#ff0000;shadow=0;comic=0;labelBackgroundColor=none;fontFamily=Verdana;fontSize=14;fontColor=#000000;align=center;" parent="fnW5yG54dcR9SUC0q5BZ-1" vertex="1">
          <mxGeometry x="950" y="420" width="120" height="60" as="geometry" />
        </mxCell>
        <mxCell id="fnW5yG54dcR9SUC0q5BZ-16" style="edgeStyle=orthogonalEdgeStyle;html=1;labelBackgroundColor=none;endArrow=open;endSize=8;strokeColor=#ff0000;fontFamily=Verdana;fontSize=12;align=left;" parent="fnW5yG54dcR9SUC0q5BZ-1" source="fnW5yG54dcR9SUC0q5BZ-3" target="fnW5yG54dcR9SUC0q5BZ-7" edge="1">
          <mxGeometry relative="1" as="geometry" />
        </mxCell>
        <mxCell id="fnW5yG54dcR9SUC0q5BZ-17" value="Verify Email()" style="edgeLabel;html=1;align=center;verticalAlign=middle;resizable=0;points=[];labelBackgroundColor=none;rotation=0;fontSize=14;" parent="fnW5yG54dcR9SUC0q5BZ-16" connectable="0" vertex="1">
          <mxGeometry x="0.06" y="-3" relative="1" as="geometry">
            <mxPoint x="318" y="-15" as="offset" />
          </mxGeometry>
        </mxCell>
        <mxCell id="fnW5yG54dcR9SUC0q5BZ-18" style="html=1;labelBackgroundColor=none;endArrow=open;endSize=8;strokeColor=#ff0000;fontFamily=Verdana;fontSize=12;align=left;entryX=0;entryY=0.5;shadow=1;" parent="fnW5yG54dcR9SUC0q5BZ-1" source="fnW5yG54dcR9SUC0q5BZ-7" target="fnW5yG54dcR9SUC0q5BZ-11" edge="1">
          <mxGeometry relative="1" as="geometry" />
        </mxCell>
        <mxCell id="fnW5yG54dcR9SUC0q5BZ-22" value="Closed" style="rounded=1;whiteSpace=wrap;html=1;arcSize=24;fillColor=#ffffc0;strokeColor=#ff0000;shadow=0;comic=0;labelBackgroundColor=none;fontFamily=Verdana;fontSize=14;fontColor=#000000;align=center;" parent="fnW5yG54dcR9SUC0q5BZ-1" vertex="1">
          <mxGeometry x="720" y="620" width="120" height="60" as="geometry" />
        </mxCell>
      </root>
    </mxGraphModel>
  </diagram>
</mxfile>
